<svg xmlns="http://www.w3.org/2000/svg" fill="none" viewBox="0 0 113 36" height="36" width="113">
<g opacity="0.6">
<g clip-path="url(#clip0_718_20549)">
<g clip-path="url(#clip1_718_20549)">
<path fill="#C0C0C0" d="M63.5363 12.7817C63.5363 9.62749 63.5913 6.69082 63.7555 3.97168L55.3713 5.54878V6.31011L56.193 6.41887C56.7961 6.47325 57.1794 6.69082 57.3986 7.01711C57.6178 7.39777 57.7825 7.94158 57.8921 8.75735C58.0017 10.3344 58.1113 13.9237 58.0562 19.5795C58.0562 25.1809 58.0017 28.7158 57.8921 30.0754C60.9058 30.728 63.2625 30.9999 65.0161 30.9999C68.3041 30.9999 70.8795 30.0754 72.7427 28.172C74.6059 26.323 75.5923 23.7126 75.5923 20.504C75.5923 17.948 74.8802 15.8271 73.4554 14.1413C72.0306 12.4554 70.2219 11.6396 68.0849 11.6396C66.6601 11.6396 65.1803 12.0203 63.5363 12.7817ZM63.7009 29.5315C63.5913 27.7913 63.4817 22.5705 63.4817 14.0325C63.9747 13.8693 64.6323 13.7605 65.4545 13.7605C66.7697 13.7605 67.8107 14.4132 68.5779 15.7727C69.3451 17.1323 69.729 18.7638 69.729 20.8303C69.729 23.3863 69.2905 25.4528 68.4137 27.1931C67.5369 28.879 66.4409 29.7491 65.0707 29.7491C64.6323 29.6403 64.1939 29.5859 63.7009 29.5315ZM23.9157 4.51549H1.99561V5.60316L3.14641 5.71192C4.02322 5.87506 4.62602 6.20134 5.00962 6.69082C5.39321 7.23463 5.61242 8.10478 5.66722 9.30115C6.10562 15.1745 6.10562 20.6672 5.66722 25.7248C5.55762 26.9212 5.33841 27.7913 5.00962 28.3351C4.62602 28.879 4.02322 29.2053 3.14641 29.314L1.99561 29.4772V30.5648H16.1341V29.4772L14.6545 29.3684C14.2934 29.3384 13.9422 29.2363 13.622 29.068C13.3018 28.8998 13.0192 28.669 12.7913 28.3895C12.4077 27.8457 12.1885 26.9755 12.1337 25.7792C11.9693 23.6038 11.8597 21.1022 11.8597 18.3287L14.8189 18.3831C16.4081 18.4375 17.5041 19.6339 18.0521 22.0267H19.1481V13.1623H18.0521C17.5041 15.5008 16.4629 16.6972 14.8189 16.7516L11.8597 16.806C11.8597 11.9115 11.9693 8.43106 12.1337 6.31011H16.4629C19.5317 6.31011 21.6141 8.26792 22.8197 12.1834L24.1349 11.8028L23.9157 4.51549ZM21.3401 21.2654C21.3401 24.0933 22.1621 26.4317 23.7513 28.2807C25.3405 30.1298 27.6969 30.9999 30.6562 30.9999C33.6154 30.9999 36.0266 30.0754 37.7802 28.172C39.5338 26.323 40.3558 23.9845 40.3558 21.1566C40.3558 18.3287 39.5338 15.9903 37.9446 14.1413C36.3554 12.2922 33.999 11.4221 31.0398 11.4221C28.0805 11.4221 25.6693 12.3466 23.9157 14.25C22.1621 16.099 21.3401 18.4375 21.3401 21.2654ZM33.5606 15.0657C34.2182 16.6428 34.4922 18.7094 34.4922 21.211C34.4922 26.9755 33.2866 29.8035 30.9302 29.8035C29.7246 29.8035 28.793 28.9877 28.1353 27.3563C27.4777 25.7248 27.2037 23.6582 27.2037 21.211C27.2037 15.5008 28.4094 12.6729 30.7658 12.6729C31.9714 12.6185 32.903 13.4343 33.5606 15.0657ZM79.8667 28.2807C81.6754 30.0754 83.977 30.9999 86.717 30.9999C88.4156 30.9999 89.8955 30.6736 91.2107 29.9666C92.5259 29.314 93.5668 28.4983 94.2795 27.5194L93.7315 26.8668C92.5259 27.7913 91.1556 28.2264 89.5667 28.2264C87.3747 28.2264 85.6756 27.5194 84.525 26.0511C83.3194 24.5827 82.7714 22.7337 82.881 20.3409H94.6083C94.6083 17.7305 93.9507 15.6096 92.5804 13.9237C91.2107 12.2922 89.2924 11.4765 86.8267 11.4765C83.7578 11.4765 81.4012 12.4554 79.7026 14.3588C78.0035 16.2622 77.1818 18.6006 77.1818 21.3742C77.1818 24.2021 78.0586 26.4861 79.8667 28.2807ZM83.922 14.6307C84.525 13.3255 85.2922 12.6729 86.3332 12.6729C87.9772 12.6729 88.7995 14.7394 88.7995 18.9269L82.9906 19.0357C83.0452 17.4042 83.3194 15.9359 83.922 14.6307ZM109.349 12.4554C107.87 11.8028 106.007 11.4221 103.76 11.4221C101.458 11.4221 99.6499 12.0203 98.2797 13.1623C96.9099 14.3044 96.1973 15.7184 96.1973 17.4042C96.1973 18.8725 96.6357 20.0146 97.4579 20.8303C98.2797 21.6461 99.5949 22.353 101.294 22.9513C102.828 23.4951 103.924 24.0389 104.472 24.5284C105.02 25.0722 105.349 25.6704 105.349 26.4861C105.349 27.2475 105.075 27.9545 104.472 28.4983C103.924 29.0965 103.157 29.3684 102.171 29.3684C99.7595 29.3684 97.9509 27.6282 96.6907 24.1476L95.7588 24.4196L95.978 29.8578C97.9509 30.6192 100.143 30.9999 102.554 30.9999C105.075 30.9999 106.993 30.4561 108.418 29.314C109.843 28.2264 110.555 26.6493 110.555 24.6915C110.555 23.3863 110.226 22.2986 109.514 21.4829C108.801 20.6672 107.651 19.9602 106.007 19.3076C104.198 18.655 102.938 18.0568 102.28 17.513C101.623 16.9692 101.294 16.3165 101.294 15.5008C101.294 14.6851 101.513 14.0325 102.006 13.4886C102.5 12.9448 103.102 12.7273 103.869 12.7273C106.061 12.7273 107.651 14.3044 108.637 17.4042L109.569 17.1323L109.349 12.4554ZM56.6314 11.9659C55.8642 11.5853 55.0425 11.4221 54.1106 11.4221C53.1793 11.4221 52.2474 11.8028 51.2064 12.5642C50.165 13.3255 49.3978 14.3588 48.7952 15.7727L48.8498 11.4221L40.5202 13.0536V13.8149L41.3422 13.8693C42.3834 13.9781 42.9862 14.7938 43.0958 16.2622C43.4246 19.6339 43.4246 23.2232 43.0958 27.0299C42.9862 28.4983 42.3834 29.2596 41.3422 29.4228L40.5202 29.5315V30.5648H52.1378V29.5315L50.6584 29.4228C49.617 29.314 49.0144 28.4983 48.9048 27.0299C48.576 23.8757 48.521 20.504 48.7952 17.0235C49.124 16.4797 49.8362 16.1534 50.9322 16.0446C52.0282 15.9359 53.2889 16.2622 54.6041 17.0235L56.6314 11.9659Z"></path>
</g>
</g>
</g>
<defs>
<clipPath id="clip0_718_20549">
<rect fill="white" height="35.1351" width="112.222"></rect>
</clipPath>
<clipPath id="clip1_718_20549">
<rect fill="white" height="35.1351" width="112.222"></rect>
</clipPath>
</defs>
</svg>
